<svg width="1512" height="980" viewBox="0 0 1512 980" fill="none" xmlns="http://www.w3.org/2000/svg">
<rect y="0.00994873" width="1512" height="979.868" fill="#FBF7ED"/>
<path fill-rule="evenodd" clip-rule="evenodd" d="M1166.98 0.00994873C936.549 221.946 687.768 308.753 2 386.612V0.00994873L1166.98 0.00994873Z" fill="white" fill-opacity="0.75"/>
<path fill-rule="evenodd" clip-rule="evenodd" d="M1506.96 0.00994873C1510.28 0.337 1512 0.508896 1512 0.508896V978.382H1328C1224.59 844.181 1187.07 703.686 1151.58 570.815C1086.09 325.586 1027.53 106.322 574.5 0.508896C573.786 0.34224 573.075 0.175924 572.366 0.00994873L1506.96 0.00994873Z" fill="#FFCFB4" fill-opacity="0.31"/>
<path fill-rule="evenodd" clip-rule="evenodd" d="M1511 979.868H1100.67C1106.9 958.613 1112.72 937.463 1118.17 916.479C1213.47 549.791 1511 541.831 1511 541.831L1511 979.868Z" fill="#FFCFB4" fill-opacity="0.31"/>
</svg>
