<svg width="1510" height="984" viewBox="0 0 1510 984" fill="none" xmlns="http://www.w3.org/2000/svg">
<path d="M1 1.84155H1509V983.842H1V1.84155Z" fill="#D9D9D9" fill-opacity="0.4"/>
<path d="M0 492.498V0H1002.56C818.541 0 704.222 105.583 581.446 218.977C439.348 350.215 285.924 491.915 0 492.498Z" fill="#8EDAEC" fill-opacity="0.25"/>
<path d="M1499.75 984H542.08C543.229 983.782 544.387 983.562 545.555 983.342C812.821 932.929 930.637 730.634 1039.39 543.895C1152.84 349.105 1256.43 171.24 1509.5 200.342C1509.67 200.361 1509.83 200.38 1510 200.4V982.605C1509.67 983.093 1509.5 983.342 1509.5 983.342C1509.5 983.342 1506.12 983.572 1499.75 984Z" fill="#FFCFB4" fill-opacity="0.31"/>
<path d="M267.049 503.189C350.096 623.256 437.101 749.047 413.905 982.341C413.85 982.895 413.796 983.448 413.741 984H951.255C951.994 983.447 952.735 982.894 953.475 982.341C1281.61 737.342 1224.76 256.842 914.578 2.34149C913.627 1.56066 912.675 0.78016 911.723 0L157.208 0C157.001 0.778611 156.794 1.55911 156.587 2.34149C91.4421 249.301 176.914 372.874 267.049 503.189Z" fill="white" fill-opacity="0.3"/>
</svg>
